<svg xmlns="http://www.w3.org/2000/svg" width="1129" height="1505.098" viewBox="0 0 1129 1505.098">
    <path d="M674.344.67s52.216,186.991,52.216,338.7c0,145.359-95.259,263.2-240.618,263.2-146.064,0-256.142-117.839-256.142-263.2l2.117-25.4C89.381,483.318,4,702.767,4,941.268c0,311.886,252.614,564.5,564.5,564.5s564.5-252.614,564.5-564.5C1133,560.936,950.243,221.531,674.344.67ZM548.037,1294.081c-125.6,0-227.211-98.787-227.211-221.566,0-114.311,74.091-194.753,198.281-220.155,124.9-25.4,254.025-85.381,326-182.051,27.519,91.026,41.632,186.991,41.632,285.073,0,186.991-151.709,338.7-338.7,338.7Z" transform="translate(-4 -0.67)" fill="#de3737"/>
</svg>
