<svg width="280" height="171" viewBox="0 0 280 171" fill="none" xmlns="http://www.w3.org/2000/svg">
<path d="M5.04772 73.5358C-1.05497 80.237 -1.05497 90.4829 5.04772 97.1841L66.0709 164.196C69.3914 167.855 74.1127 169.935 79.0555 169.934L261.684 169.933C266.341 169.933 270.808 168.084 274.101 164.79C277.395 161.496 279.245 157.029 279.245 152.372L279.245 18.3489C279.245 13.5004 277.279 9.1101 274.101 5.93178C270.923 2.75408 266.532 0.788351 261.683 0.787109L79.0568 0.787135C74.1145 0.787135 69.3995 2.86959 66.0716 6.52412L5.04772 73.5358ZM60.848 64.5193C72.358 64.5193 81.6893 73.8506 81.6893 85.3606C81.6893 96.8706 72.358 106.202 60.848 106.202C49.338 106.202 40.0067 96.8706 40.0067 85.3606C40.0067 73.8506 49.3368 64.5193 60.848 64.5193Z" fill="#C73030" stroke="black" stroke-width="0.878066"/>
<path d="M60.8614 106.276C72.4022 106.276 81.7579 96.9356 81.7579 85.4138C81.7579 73.892 72.4022 64.5518 60.8614 64.5518C49.3205 64.5518 39.9648 73.892 39.9648 85.4138C39.9648 96.9356 49.3205 106.276 60.8614 106.276Z" fill="white"/>
</svg>
