<svg xmlns="http://www.w3.org/2000/svg" version="1.0" width="512.000000pt" height="512.000000pt" viewBox="0 0 512.000000 512.000000" preserveAspectRatio="xMidYMid meet">
    <g transform="translate(0.000000,512.000000) scale(0.100000,-0.100000)" fill="#FF0000" stroke="none">
        <path d="M4056 5099 c-64 -10 -198 -55 -261 -87 -268 -134 -445 -387 -486 -689 -20 -148 6 -404 71 -717 32 -158 69 -201 170 -201 51 0 63 4 90 30 56 53 56 77 9 353 -37 215 -43 267 -43 402 -1 149 0 158 28 225 78 188 210 308 411 373 34 11 85 16 160 16 93 0 122 -4 188 -27 101 -35 148 -65 229 -149 79 -81 128 -172 159 -298 20 -77 21 -103 16 -295 -6 -235 -17 -316 -78 -539 -46 -172 -102 -328 -165 -464 -24 -52 -51 -115 -59 -139 -50 -146 133 -252 240 -139 59 63 185 347 251 568 96 322 142 693 115 927 -54 462 -362 800 -776 850 -102 12 -197 13 -269 0z"/>
        <path d="M2510 4290 c-143 -5 -158 -7 -190 -29 -46 -32 -2044 -2025 -2163 -2159 -118 -131 -147 -184 -147 -266 0 -85 13 -125 67 -198 50 -69 1174 -1203 1421 -1434 184 -171 223 -194 331 -194 98 0 131 17 257 128 215 192 2110 2092 2188 2194 24 33 29 50 38 150 17 188 -15 753 -73 1278 -41 376 -55 406 -192 436 -109 24 -290 45 -300 35 -8 -8 0 -103 25 -271 11 -71 14 -78 64 -130 31 -32 67 -85 86 -125 30 -64 33 -78 33 -165 0 -86 -3 -101 -32 -162 -79 -166 -226 -256 -407 -246 -134 7 -246 70 -316 180 -78 119 -90 266 -35 402 l28 69 -17 125 c-10 69 -20 181 -23 248 l-6 124 -31 4 c-50 8 -438 12 -606 6z"/>
    </g>
</svg>

